<svg xmlns="http://www.w3.org/2000/svg" width="220" height="400" viewBox="0 0 220 400"><ellipse cx="110" cy="386" rx="58" ry="11" fill="#00000022"/><path d="M110,80 C160,90 178,158 180,374 L40,374 C42,158 60,90 110,80 Z" fill="#2743E0"/><path d="M110,80 C132,120 140,240 138,374 L180,374 C178,158 160,90 110,80 Z" fill="#1B2FA8"/><rect x="50" y="238" width="120" height="16" rx="8" fill="#12207A"/><circle cx="110" cy="50" r="32" fill="#F0C8A0"/><circle cx="98" cy="52" r="5" fill="#1B1B1B"/><circle cx="124" cy="52" r="5" fill="#1B1B1B"/><circle cx="100" cy="50" r="1.8" fill="#fff"/><circle cx="126" cy="50" r="1.8" fill="#fff"/><path d="M90,40 q8,-6 16,-2 M116,38 q8,-4 16,2" stroke="#1B1B1B" stroke-width="3" fill="none" stroke-linecap="round"/><ellipse cx="112" cy="70" rx="6" ry="7" fill="#B07850"/><path d="M82,34 a32,32 0 0 1 56,0" fill="none" stroke="#D8AA7E" stroke-width="5"/><ellipse cx="82" cy="380" rx="20" ry="8" fill="#5D3A1A"/><ellipse cx="140" cy="380" rx="20" ry="8" fill="#5D3A1A"/></svg>