<svg xmlns="http://www.w3.org/2000/svg" width="200" height="222" viewBox="0 0 200 222"><ellipse cx="100" cy="198" rx="80" ry="20" fill="#D95D39"/><path d="M100,62 C152,70 170,122 174,182 L26,182 C30,122 48,70 100,62 Z" fill="#1E7F86"/><path d="M100,62 C80,100 72,150 74,182 L26,182 C30,122 48,70 100,62 Z" fill="#155F63"/><ellipse cx="104" cy="152" rx="27" ry="12" fill="#F0C8A0"/><circle cx="100" cy="46" r="30" fill="#F0C8A0"/><path d="M86,50 q7,6 14,0 M114,50 q-4,5 -8,1" stroke="#1B1B1B" stroke-width="3.5" fill="none" stroke-linecap="round"/><path d="M74,34 a30,30 0 0 1 52,0" fill="none" stroke="#D8AA7E" stroke-width="5"/></svg>